<mxfile host="Electron" agent="Mozilla/5.0 (Windows NT 10.0; Win64; x64) AppleWebKit/537.36 (KHTML, like Gecko) draw.io/25.0.2 Chrome/128.0.6613.186 Electron/32.2.5 Safari/537.36" version="25.0.2">
  <diagram name="Página-1" id="SP5Isz53-QteDI6mzn1N">
    <mxGraphModel dx="1098" dy="2037" grid="1" gridSize="10" guides="1" tooltips="1" connect="1" arrows="1" fold="1" page="1" pageScale="1" pageWidth="827" pageHeight="1169" math="0" shadow="0">
      <root>
        <mxCell id="0" />
        <mxCell id="1" parent="0" />
        <mxCell id="7CGm4p5v7_druveudGOm-1" value="&lt;span style=&quot;background-color: initial;&quot;&gt;4. Atributos multivaluados&lt;/span&gt;" style="text;html=1;align=left;verticalAlign=middle;resizable=0;points=[];autosize=1;strokeColor=none;fillColor=none;strokeWidth=0;fontSize=20;fontStyle=1" vertex="1" parent="1">
          <mxGeometry x="40" y="-1120" width="250" height="40" as="geometry" />
        </mxCell>
        <mxCell id="7CGm4p5v7_druveudGOm-2" value="Los atributos multivaluados son aquellos atributos que pueden tener más de un valor." style="text;html=1;align=left;verticalAlign=middle;resizable=0;points=[];autosize=1;strokeColor=none;fillColor=none;" vertex="1" parent="1">
          <mxGeometry x="40" y="-1070" width="480" height="30" as="geometry" />
        </mxCell>
        <mxCell id="7CGm4p5v7_druveudGOm-3" value="Queremos registrar empleados en nuestra base de datos su DNI, nombre, telefonos&amp;nbsp;&lt;span style=&quot;background-color: initial;&quot;&gt;(puede tener mas de uno)&amp;nbsp;&lt;/span&gt;&lt;span style=&quot;background-color: initial;&quot;&gt;y puesto.&lt;/span&gt;" style="text;html=1;align=left;verticalAlign=middle;resizable=0;points=[];autosize=1;strokeColor=none;fillColor=none;fontStyle=1" vertex="1" parent="1">
          <mxGeometry x="40" y="-990" width="660" height="30" as="geometry" />
        </mxCell>
        <mxCell id="7CGm4p5v7_druveudGOm-4" value="Por ejemplo," style="text;html=1;align=left;verticalAlign=middle;resizable=0;points=[];autosize=1;strokeColor=none;fillColor=none;" vertex="1" parent="1">
          <mxGeometry x="40" y="-1030" width="90" height="30" as="geometry" />
        </mxCell>
        <mxCell id="7CGm4p5v7_druveudGOm-5" value="Empleado" style="whiteSpace=wrap;html=1;align=center;" vertex="1" parent="1">
          <mxGeometry x="315" y="-850" width="100" height="40" as="geometry" />
        </mxCell>
        <mxCell id="7CGm4p5v7_druveudGOm-6" value="nombre" style="ellipse;whiteSpace=wrap;html=1;align=center;" vertex="1" parent="1">
          <mxGeometry x="297.5" y="-910" width="55" height="40" as="geometry" />
        </mxCell>
        <mxCell id="7CGm4p5v7_druveudGOm-7" style="edgeStyle=orthogonalEdgeStyle;rounded=0;orthogonalLoop=1;jettySize=auto;html=1;entryX=0;entryY=0.5;entryDx=0;entryDy=0;endArrow=none;endFill=0;" edge="1" parent="1" source="7CGm4p5v7_druveudGOm-8" target="7CGm4p5v7_druveudGOm-5">
          <mxGeometry relative="1" as="geometry">
            <Array as="points">
              <mxPoint x="250" y="-830" />
            </Array>
          </mxGeometry>
        </mxCell>
        <mxCell id="7CGm4p5v7_druveudGOm-8" value="DNI" style="ellipse;whiteSpace=wrap;html=1;align=center;fontStyle=4;" vertex="1" parent="1">
          <mxGeometry x="225" y="-910" width="55" height="40" as="geometry" />
        </mxCell>
        <mxCell id="7CGm4p5v7_druveudGOm-9" value="puesto" style="ellipse;whiteSpace=wrap;html=1;align=center;" vertex="1" parent="1">
          <mxGeometry x="370" y="-910" width="55" height="40" as="geometry" />
        </mxCell>
        <mxCell id="7CGm4p5v7_druveudGOm-10" style="edgeStyle=orthogonalEdgeStyle;rounded=0;orthogonalLoop=1;jettySize=auto;html=1;entryX=1;entryY=0.5;entryDx=0;entryDy=0;endArrow=none;endFill=0;" edge="1" parent="1" source="7CGm4p5v7_druveudGOm-11" target="7CGm4p5v7_druveudGOm-5">
          <mxGeometry relative="1" as="geometry" />
        </mxCell>
        <mxCell id="7CGm4p5v7_druveudGOm-11" value="telefono" style="ellipse;shape=doubleEllipse;margin=3;whiteSpace=wrap;html=1;align=center;" vertex="1" parent="1">
          <mxGeometry x="445" y="-850" width="65" height="40" as="geometry" />
        </mxCell>
        <mxCell id="7CGm4p5v7_druveudGOm-12" style="edgeStyle=orthogonalEdgeStyle;rounded=0;orthogonalLoop=1;jettySize=auto;html=1;entryX=0.829;entryY=0.017;entryDx=0;entryDy=0;entryPerimeter=0;endArrow=none;endFill=0;" edge="1" parent="1" source="7CGm4p5v7_druveudGOm-9" target="7CGm4p5v7_druveudGOm-5">
          <mxGeometry relative="1" as="geometry" />
        </mxCell>
        <mxCell id="7CGm4p5v7_druveudGOm-13" style="edgeStyle=orthogonalEdgeStyle;rounded=0;orthogonalLoop=1;jettySize=auto;html=1;entryX=0.112;entryY=0.017;entryDx=0;entryDy=0;entryPerimeter=0;endArrow=none;endFill=0;" edge="1" parent="1" source="7CGm4p5v7_druveudGOm-6" target="7CGm4p5v7_druveudGOm-5">
          <mxGeometry relative="1" as="geometry" />
        </mxCell>
      </root>
    </mxGraphModel>
  </diagram>
</mxfile>
